<?xml version="1.0" standalone="no"?>
<!DOCTYPE svg PUBLIC "-//W3C//DTD SVG 20010904//EN"
 "http://www.w3.org/TR/2001/REC-SVG-20010904/DTD/svg10.dtd">
<svg version="1.0" xmlns="http://www.w3.org/2000/svg"
 width="2000.000000pt" height="2000.000000pt" viewBox="0 0 2000.000000 2000.000000"
 preserveAspectRatio="xMidYMid meet">

<g transform="translate(0.000000,2000.000000) scale(0.100000,-0.100000)"
fill="#c8a84e" stroke="none">
<path d="M9530 19799 c-2215 -108 -4292 -949 -5965 -2415 -198 -173 -522 -489
-708 -689 -1874 -2017 -2803 -4709 -2572 -7460 163 -1943 899 -3774 2128
-5298 216 -268 407 -478 696 -768 585 -585 1141 -1023 1831 -1444 2578 -1572
5780 -1851 8605 -750 1055 412 2012 995 2893 1763 215 187 697 669 884 884
1082 1241 1816 2668 2177 4234 572 2481 158 5079 -1152 7244 -423 697 -864
1259 -1456 1851 -443 443 -814 755 -1306 1101 -1755 1233 -3901 1852 -6055
1747z m554 -581 c8 -97 28 -830 22 -835 -3 -3 -65 -8 -139 -11 l-134 -5 -6
114 c-4 63 -7 144 -7 182 l0 67 -67 0 c-38 0 -105 -3 -151 -7 l-84 -6 8 -177
7 -177 -137 -7 c-76 -4 -139 -6 -141 -4 -3 3 -34 891 -31 894 0 1 62 4 137 8
l136 6 7 -37 c3 -21 6 -91 6 -155 l0 -118 152 0 151 0 -6 160 -6 159 132 4
c73 1 135 4 139 5 3 1 9 -26 12 -60z m1000 -26 l120 -17 107 -465 c59 -256
106 -466 105 -468 -8 -7 -271 34 -281 45 -7 6 -16 41 -19 77 l-7 64 -37 6
c-104 16 -274 37 -277 34 -2 -2 -17 -34 -34 -71 -29 -65 -32 -68 -58 -63 -16
3 -73 11 -128 17 -55 7 -105 15 -112 18 -7 4 62 142 198 396 116 215 217 402
225 418 17 32 26 33 198 9z m-2354 -447 c45 -225 82 -416 83 -424 2 -11 -32
-21 -131 -41 -73 -15 -135 -24 -137 -19 -3 4 -19 74 -35 155 -17 81 -32 149
-34 151 -2 2 -26 -12 -54 -31 -81 -54 -151 -76 -240 -75 -87 1 -122 11 -184
55 -67 47 -93 107 -133 305 -19 95 -35 180 -35 189 0 13 25 21 123 39 67 13
127 26 133 28 7 2 21 -48 38 -134 30 -152 54 -216 84 -232 54 -29 175 4 209
56 16 24 15 35 -16 190 -18 91 -29 168 -26 172 4 3 63 18 133 32 113 23 128
24 134 10 4 -9 44 -200 88 -426z m-1294 -294 c85 -222 154 -409 154 -416 0 -6
-54 -32 -119 -57 l-119 -45 -83 216 c-45 119 -85 219 -88 223 -4 4 -36 -116
-71 -268 -35 -151 -67 -279 -70 -284 -5 -8 -242 -102 -246 -97 0 1 -72 188
-159 415 -88 232 -154 417 -149 422 14 13 225 90 233 85 4 -2 45 -103 91 -224
46 -121 85 -219 87 -218 1 2 32 129 68 282 36 154 69 283 73 287 12 11 216 87
230 85 8 -1 78 -172 168 -406z m5614 234 c178 -69 326 -127 327 -129 6 -6 -75
-201 -83 -201 -5 0 -96 33 -202 74 -106 41 -194 72 -196 70 -2 -2 -56 -141
-121 -309 -64 -168 -119 -307 -121 -309 -7 -8 -254 92 -254 102 0 16 314 827
320 827 3 0 152 -56 330 -125z m-6992 -444 c29 -49 52 -93 52 -98 0 -5 -54
-40 -119 -77 -113 -66 -119 -70 -106 -90 17 -27 298 -514 313 -542 11 -20 4
-26 -103 -88 -64 -36 -119 -66 -123 -66 -4 0 -82 128 -172 285 -91 157 -169
285 -173 285 -4 0 -59 -29 -121 -65 -62 -36 -115 -65 -118 -65 -7 0 -108 177
-108 187 0 7 707 421 720 423 3 0 29 -40 58 -89z m7999 -33 c118 -68 235 -140
258 -160 88 -77 107 -195 51 -306 -62 -122 -150 -178 -266 -169 -54 4 -84 15
-179 64 -62 32 -117 59 -121 61 -5 2 -43 -59 -86 -135 -42 -76 -78 -140 -80
-142 -4 -4 -222 115 -237 129 -10 8 422 780 436 780 5 0 105 -55 224 -122z
m-3477 -488 c465 -39 810 -91 1199 -181 1426 -331 2747 -1076 3776 -2131 264
-270 587 -650 569 -668 -5 -5 -83 -50 -174 -100 l-165 -90 -40 47 c-221 259
-288 336 -396 449 -704 738 -1507 1300 -2424 1696 -2038 879 -4394 784 -6345
-257 -665 -354 -1236 -781 -1772 -1321 -108 -110 -209 -214 -223 -232 l-27
-32 -92 97 c-50 54 -113 121 -139 149 l-47 51 184 189 c960 990 2153 1701
3472 2069 539 150 1070 238 1669 275 176 11 808 5 975 -10z m4391 -97 c61 -47
113 -91 115 -98 3 -6 -22 -87 -55 -180 -33 -94 -58 -171 -56 -173 2 -2 71 42
155 98 83 56 157 99 163 97 25 -9 217 -166 210 -170 -74 -44 -650 -360 -707
-388 -139 -68 -224 -48 -360 81 l-70 67 50 63 c27 35 52 68 56 74 4 5 23 -6
47 -27 70 -63 133 -84 163 -54 7 8 49 167 93 355 44 188 81 342 82 342 2 0 53
-39 114 -87z m-10008 -34 l57 -72 -35 -38 c-46 -51 -51 -78 -30 -156 12 -43
16 -84 12 -121 l-5 -57 60 3 c73 5 144 -19 336 -110 l132 -63 -82 -65 c-45
-36 -101 -80 -124 -98 l-41 -33 -157 77 c-150 74 -204 90 -227 67 -7 -7 25
-53 96 -141 58 -72 105 -136 105 -141 0 -10 -182 -159 -202 -166 -8 -2 -115
124 -248 291 -129 162 -254 319 -277 348 l-42 53 67 53 c37 30 86 69 109 87
l41 34 103 -128 c56 -70 104 -130 105 -132 8 -10 34 24 34 43 0 11 -14 68 -30
125 -34 117 -37 168 -14 217 15 32 176 194 193 194 4 0 33 -32 64 -71z m11211
-1031 l290 -311 -45 -41 c-24 -22 -169 -158 -323 -301 -153 -143 -282 -261
-286 -263 -9 -3 -185 185 -185 197 0 4 107 108 238 230 130 122 237 227 237
232 0 6 -39 52 -87 102 -48 51 -91 97 -97 104 -8 9 -72 -45 -256 -217 l-245
-230 -92 96 c-51 53 -93 101 -92 107 1 13 636 608 647 606 4 0 137 -140 296
-311z m-11582 -316 c4 -4 -37 -54 -92 -112 l-98 -105 -66 33 c-37 17 -68 32
-70 32 -6 0 -198 -214 -203 -226 -2 -6 13 -39 33 -72 l36 -62 -38 -42 c-21
-24 -63 -71 -95 -106 l-57 -63 -105 203 c-58 112 -155 304 -216 426 -96 192
-110 226 -99 240 7 10 53 60 101 113 l88 97 437 -175 c240 -96 440 -178 444
-181z m-1450 -530 c40 -26 65 -49 61 -56 -4 -6 -37 -57 -75 -114 -38 -56 -67
-106 -64 -110 3 -5 126 -89 275 -188 149 -98 271 -183 271 -187 0 -6 -129
-206 -146 -226 -2 -2 -130 80 -284 183 l-280 186 -76 -116 c-52 -79 -80 -114
-90 -110 -11 4 -155 97 -173 112 -1 1 102 161 229 354 l233 351 26 -17 c14
-10 56 -38 93 -62z m13899 -253 c47 -71 77 -125 73 -132 -10 -17 -535 -750
-544 -761 -5 -4 -45 47 -90 113 l-81 122 50 58 50 57 -87 131 -87 131 -73 -23
-72 -23 -24 31 c-49 67 -135 201 -131 205 8 9 920 219 928 215 4 -3 44 -58 88
-124z m-2613 -616 c29 -56 142 -551 186 -818 64 -384 93 -638 126 -1084 22
-302 25 -391 11 -391 -5 0 -29 9 -54 19 l-45 19 -6 144 c-31 661 -110 1256
-242 1828 -45 192 -48 200 -75 200 -12 0 -130 -18 -263 -40 -133 -23 -315 -52
-406 -66 -312 -47 -765 -112 -895 -129 -71 -9 -160 -21 -197 -26 -63 -8 -320
-37 -533 -59 -505 -53 -1388 -100 -1884 -100 -114 0 -137 -3 -154 -17 -17 -16
-20 -16 -30 -2 -10 14 -57 17 -337 23 -984 21 -1860 95 -2890 246 -692 101
-1100 169 -1127 186 -13 8 -30 28 -38 44 -15 29 -15 30 9 30 14 0 71 -9 128
-20 277 -53 1239 -189 1658 -235 80 -9 201 -22 270 -30 282 -33 825 -78 1140
-95 767 -41 1734 -41 2440 0 475 28 1267 105 1635 160 72 11 204 29 295 40
245 31 904 131 1150 175 103 18 118 18 128 -2z m-10203 -330 c-2 -7 -44 -66
-93 -130 -399 -529 -757 -1187 -995 -1828 -572 -1542 -608 -3259 -100 -4818
24 -76 43 -140 41 -143 -6 -6 -351 -94 -370 -94 -13 0 -27 33 -63 146 -184
582 -295 1160 -347 1809 -16 209 -16 871 0 1085 118 1528 626 2890 1527 4099
l129 173 138 -143 c75 -79 135 -150 133 -156z m1142 -175 c-3 -8 -6 -5 -6 6
-1 11 2 17 5 13 3 -3 4 -12 1 -19z m11166 -155 c262 -410 475 -819 654 -1258
594 -1453 730 -3072 388 -4610 -70 -316 -208 -795 -228 -795 -28 0 -367 124
-367 135 0 6 11 45 25 86 72 208 159 545 215 829 329 1658 71 3407 -720 4880
-94 177 -265 463 -351 592 -33 48 -59 91 -59 96 0 8 327 192 342 192 3 0 49
-66 101 -147z m-11176 85 c-3 -7 -5 -2 -5 12 0 14 2 19 5 13 2 -7 2 -19 0 -25z
m-10 -50 c-3 -7 -5 -2 -5 12 0 14 2 19 5 13 2 -7 2 -19 0 -25z m5504 -68 c271
-67 293 -75 320 -104 25 -26 25 -98 0 -173 -11 -32 -31 -98 -46 -146 -33 -113
-59 -143 -144 -166 l-64 -18 -44 -179 c-24 -98 -53 -207 -64 -242 -12 -35 -19
-65 -18 -66 18 -16 194 -110 246 -131 90 -36 140 -41 201 -21 67 23 122 64
171 129 53 69 98 91 180 85 85 -6 159 -56 196 -132 24 -48 26 -63 20 -113 -6
-55 -5 -60 22 -85 32 -31 130 -70 232 -93 108 -25 178 -97 195 -201 14 -84
-38 -180 -118 -218 -38 -18 -121 -21 -161 -6 -23 9 -27 7 -36 -17 -16 -42 -36
-189 -55 -410 -16 -179 -20 -206 -40 -230 -12 -15 -26 -25 -30 -20 -18 18 37
540 78 727 35 164 71 220 139 220 65 0 103 -75 60 -114 -27 -24 -41 -12 -41
34 0 44 -6 51 -37 39 -49 -18 -72 -129 -34 -163 50 -45 144 -23 189 44 20 29
23 44 20 88 -5 59 -27 95 -78 130 -41 27 -72 36 -103 28 -38 -9 -98 -76 -128
-142 -77 -169 -131 -539 -133 -899 -1 -227 6 -270 61 -378 74 -147 218 -215
313 -147 97 69 100 261 5 320 -43 26 -119 27 -162 0 -64 -39 -83 -125 -38
-178 31 -37 66 -44 127 -24 59 19 63 46 8 49 -19 1 -41 2 -47 2 -16 1 -17 33
-1 49 17 17 78 15 100 -5 29 -26 23 -117 -7 -119 -5 0 -28 -8 -49 -18 -109
-49 -211 49 -237 226 -11 75 -10 79 14 121 46 77 115 144 255 245 288 207 512
344 780 476 367 180 696 286 1037 333 248 34 653 18 806 -33 l47 -15 7 -142
c4 -78 5 -166 3 -196 l-3 -55 -100 -28 c-782 -223 -1534 -702 -2306 -1468
-119 -118 -250 -253 -291 -298 l-74 -84 -38 159 c-21 87 -41 161 -45 165 -3 4
-17 -2 -30 -13 -19 -15 -22 -26 -19 -55 l4 -37 -20 24 c-12 14 -33 31 -48 38
-25 13 -84 108 -74 118 2 2 19 -5 37 -16 64 -39 132 -22 165 41 18 35 14 44
-14 29 -41 -22 -109 -6 -142 34 -21 26 -5 28 41 5 32 -17 54 -21 87 -17 45 5
62 18 62 50 0 14 -9 17 -54 17 -44 0 -58 4 -80 26 -37 37 -32 50 9 24 24 -15
47 -20 77 -18 40 3 43 5 43 32 0 26 -5 30 -48 41 -47 12 -97 48 -85 61 4 3 20
-4 36 -16 16 -12 44 -22 63 -23 36 -2 53 19 65 81 6 28 4 29 -36 36 -87 14
-182 148 -216 302 -36 171 -15 662 41 935 41 198 80 296 148 366 l40 42 -26
12 c-43 19 -74 4 -107 -54 -16 -28 -32 -56 -34 -62 -2 -6 -8 -6 -15 1 -18 16
-4 57 35 102 19 22 34 43 34 47 0 13 -72 -4 -91 -21 -12 -11 -27 -14 -45 -10
l-26 7 42 39 c42 39 43 40 25 60 -19 21 -38 20 -108 -6 -50 -19 -57 -18 -57 7
0 23 52 49 98 49 71 0 83 105 20 169 -60 61 -147 88 -198 61 -10 -5 -41 -39
-69 -74 -72 -90 -132 -119 -255 -124 -71 -3 -105 1 -153 16 -67 21 -291 146
-299 167 -3 6 7 56 22 111 14 54 41 160 60 234 54 216 51 207 82 214 85 20
132 38 132 50 0 7 -32 23 -74 36 l-74 23 -30 -24 c-17 -13 -32 -31 -35 -40 -3
-12 -13 -15 -36 -11 -39 5 -40 16 -2 32 29 12 68 47 60 54 -2 2 -59 20 -127
39 l-123 36 -61 -39 c-55 -36 -78 -47 -78 -36 0 2 24 22 54 44 54 41 64 59 94
162 9 31 10 28 5 -20 -3 -30 -7 -61 -7 -68 -1 -15 225 -85 258 -80 26 4 64
107 44 119 -26 17 -283 99 -308 99 -14 0 -36 -9 -50 -20 -28 -22 -40 -25 -40
-10 0 5 20 21 44 35 44 26 45 26 103 11 37 -10 61 -12 67 -6 6 6 7 10 4 10 -3
0 0 26 8 58 7 31 13 60 14 64 0 6 -98 38 -117 38 -4 0 -22 -22 -40 -49 -21
-33 -45 -55 -72 -67 -42 -18 -45 -23 -56 -89 -15 -98 -48 -224 -60 -229 -7 -2
-45 0 -84 6 l-71 10 0 34 0 33 -185 0 c-173 1 -272 8 -261 18 2 3 71 5 153 6
l148 2 3 83 3 82 -156 0 c-102 0 -154 3 -150 10 3 6 22 10 41 10 l34 0 0 75 0
75 -50 0 -50 0 -2 -137 c-1 -76 -3 -158 -3 -183 -1 -25 3 -56 7 -69 5 -13 5
-28 1 -32 -4 -4 -43 -10 -85 -14 l-77 -7 -10 39 c-6 21 -18 76 -26 123 -20
111 -27 125 -75 155 -22 14 -52 44 -67 68 -15 23 -28 44 -30 46 -1 2 -32 -5
-68 -15 -67 -17 -67 -18 -60 -48 3 -17 8 -47 11 -66 4 -31 1 -27 -27 28 -17
35 -36 61 -43 59 -6 -2 -45 -13 -86 -23 -41 -10 -76 -19 -78 -20 -2 -1 8 -37
21 -81 16 -50 31 -79 41 -81 24 -5 28 19 11 67 -17 49 -20 91 -6 91 5 0 17
-24 26 -53 28 -88 18 -86 157 -45 118 34 124 35 151 19 37 -21 72 -59 64 -68
-4 -3 -18 4 -31 16 -13 12 -30 23 -37 25 -8 1 -19 5 -25 9 -11 7 -129 -28
-150 -45 -9 -6 -7 -25 7 -70 11 -34 21 -63 23 -65 2 -2 36 4 75 14 l72 17 -6
36 c-3 19 -8 48 -11 64 -4 17 -2 26 4 22 5 -3 15 -34 22 -68 10 -55 18 -68 58
-105 55 -51 48 -55 -22 -12 l-50 31 -60 -19 c-33 -10 -61 -23 -63 -29 -2 -6
11 -27 29 -48 l33 -37 49 11 c95 21 414 51 566 53 85 0 200 -4 255 -11 55 -7
142 -17 194 -23 96 -11 326 -70 344 -88 16 -16 1 -24 -21 -12 -40 21 -51 10
-66 -70 -6 -35 -5 -36 34 -52 22 -8 40 -20 40 -26 0 -7 -8 -7 -27 0 -45 17
-226 59 -254 59 -24 0 -27 -5 -39 -70 -7 -39 -11 -72 -9 -73 2 -2 51 -16 109
-31 113 -29 196 -64 183 -77 -4 -4 -57 7 -118 26 -384 116 -759 124 -1150 25
-66 -17 -137 -37 -158 -45 -44 -18 -47 -18 -47 -5 0 15 71 48 167 75 48 14 93
27 99 29 9 3 9 21 -1 70 -6 37 -14 69 -17 72 -7 6 -196 -33 -252 -52 -46 -16
-46 -17 -46 -5 0 4 20 16 45 25 49 19 48 12 23 109 -7 29 -13 37 -26 33 -43
-11 -72 -16 -72 -11 0 10 57 33 113 45 31 7 57 16 57 20 0 4 -21 24 -46 45
-54 44 -62 44 -222 -8 -57 -18 -105 -30 -108 -26 -5 8 57 32 189 74 48 15 87
33 87 38 0 23 -35 120 -45 123 -5 2 -64 -12 -130 -32 -66 -19 -131 -38 -143
-41 -21 -5 -23 -10 -17 -41 12 -64 46 -142 69 -157 12 -8 46 -19 76 -25 56
-11 66 -19 76 -60 3 -14 32 -121 65 -238 32 -118 60 -227 62 -243 2 -28 -4
-33 -123 -100 -145 -81 -205 -101 -304 -102 -120 -1 -226 46 -301 137 -72 86
-120 94 -210 34 -61 -40 -88 -95 -75 -152 8 -38 23 -56 47 -56 33 0 93 -33 93
-50 0 -29 -13 -31 -74 -9 -56 19 -96 18 -96 -2 0 -6 11 -27 25 -47 37 -54 31
-69 -12 -33 -21 17 -46 31 -56 31 -29 0 -32 -29 -5 -58 30 -32 48 -64 48 -86
0 -29 -20 -16 -50 33 -41 67 -73 87 -111 71 l-29 -13 39 -42 c89 -97 137 -250
187 -591 23 -155 26 -637 5 -729 -19 -83 -56 -158 -109 -216 -49 -55 -88 -79
-127 -79 -14 0 -25 -2 -25 -5 0 -3 11 -28 25 -55 23 -45 29 -50 58 -50 17 1
43 7 57 15 31 18 41 19 34 2 -8 -21 -60 -47 -93 -47 -36 0 -48 -19 -31 -49 13
-25 55 -28 107 -6 42 18 43 18 43 5 0 -21 -65 -50 -112 -50 -41 0 -48 -3 -48
-19 0 -52 83 -68 154 -30 43 23 58 18 31 -11 -24 -27 -80 -43 -126 -37 -50 7
-51 -10 -4 -52 40 -35 82 -40 129 -16 16 9 30 14 32 12 2 -2 -2 -20 -8 -40
-10 -32 -81 -107 -102 -107 -3 0 -6 14 -6 31 0 54 -24 26 -48 -57 -36 -127
-53 -238 -59 -399 -5 -138 -3 -158 20 -252 14 -56 44 -141 66 -189 23 -48 41
-92 41 -99 0 -10 -27 -11 -112 -8 -180 8 -188 11 -222 66 -16 26 -27 49 -25
51 2 2 42 -2 89 -10 47 -7 97 -14 111 -14 l27 0 -19 59 c-23 77 -49 250 -49
334 0 92 25 265 62 435 l31 142 -20 28 c-48 66 -53 85 -53 226 0 74 -3 142 -6
150 -4 9 -31 28 -60 42 -89 42 -133 118 -134 230 0 76 38 158 90 192 29 20 43
22 85 17 70 -9 129 -40 165 -85 44 -56 40 -83 -24 -164 -40 -50 -79 -70 -121
-62 -39 8 -63 32 -48 47 7 7 22 7 44 1 68 -18 139 27 139 87 -1 39 -35 107
-64 126 -33 22 -112 16 -149 -11 -39 -28 -77 -109 -77 -163 0 -90 60 -164 144
-178 69 -11 175 67 226 167 57 112 77 305 60 577 -27 435 -116 761 -226 834
-118 77 -279 -95 -204 -219 43 -70 138 -95 185 -47 29 28 33 71 10 115 -29 57
-75 60 -75 5 0 -37 -10 -48 -34 -39 -41 16 -27 97 20 115 65 24 127 -31 157
-141 22 -80 24 -106 9 -102 -8 1 -42 -7 -77 -19 -56 -19 -69 -20 -120 -9 -65
13 -129 63 -152 117 -33 81 0 201 73 261 38 31 110 62 146 62 28 0 173 58 203
82 24 19 26 24 20 73 -9 70 7 117 59 173 69 75 178 112 239 81 12 -7 54 -43
94 -80 96 -93 163 -124 263 -123 85 0 158 27 291 105 l76 44 -19 55 c-11 30
-41 138 -66 240 l-47 185 -63 16 c-80 21 -114 53 -137 127 -9 31 -33 108 -52
169 -61 198 -60 199 300 287 149 36 277 66 284 66 6 0 22 -19 36 -43 29 -49
53 -73 99 -95 42 -22 51 -41 84 -184 25 -109 29 -118 50 -118 28 0 30 13 41
260 l8 175 283 -1 c155 0 284 -3 287 -5 2 -3 -1 -96 -6 -207 -11 -214 -9 -232
32 -232 20 0 36 44 64 180 18 85 33 113 73 134 33 17 71 58 101 109 13 20 26
35 31 32 4 -3 117 -32 251 -65z m-5514 8 c-3 -7 -5 -2 -5 12 0 14 2 19 5 13 2
-7 2 -19 0 -25z m-26 -149 c-54 -339 -94 -729 -112 -1114 -18 -366 0 -1507 24
-1531 3 -3 85 45 183 107 856 535 1629 792 2304 766 109 -5 182 -13 245 -29
50 -12 111 -22 138 -22 26 -1 47 -3 47 -6 0 -3 5 -32 10 -65 32 -189 58 -710
37 -731 -3 -4 -24 9 -46 29 -50 45 -81 61 -161 83 -197 53 -541 -25 -1080
-243 -85 -34 -461 -208 -525 -243 -27 -15 -104 -55 -170 -90 -227 -120 -857
-489 -870 -510 -7 -12 76 -428 115 -579 17 -63 30 -116 30 -117 0 -2 50 -4
112 -4 l111 0 106 103 c58 56 133 123 166 148 80 60 91 91 75 213 -6 49 -9 90
-7 93 3 2 23 -74 47 -169 23 -95 47 -186 53 -202 11 -30 12 -30 99 -10 22 5
35 -2 76 -40 38 -36 68 -53 134 -75 47 -16 95 -34 107 -41 13 -6 25 -10 27 -7
5 4 -5 19 -258 377 -83 118 -185 262 -225 320 -41 58 -80 112 -88 122 -14 18
-10 28 12 28 26 0 134 -113 270 -283 l135 -168 67 8 c86 10 387 10 473 0 60
-8 67 -7 62 7 -3 9 -1 16 5 16 6 0 46 31 90 70 76 67 171 180 248 296 27 41
42 54 57 52 29 -4 31 -35 11 -218 -10 -91 -15 -205 -13 -278 1 -67 2 -122 0
-122 -1 0 -14 7 -27 16 -28 19 -57 15 -34 -4 8 -7 48 -34 89 -61 78 -50 195
-164 247 -241 38 -57 73 -125 73 -144 0 -22 -85 -37 -200 -35 -126 3 -124 4
-274 -120 -61 -50 -116 -91 -123 -91 -18 0 -38 43 -69 155 -23 81 -29 128 -34
249 -3 86 -9 151 -15 152 -5 2 -38 -37 -73 -86 -42 -61 -88 -111 -142 -156
-44 -36 -80 -70 -80 -75 0 -6 18 -35 41 -65 53 -72 71 -116 67 -167 -3 -35 -7
-43 -26 -45 -34 -5 -52 16 -102 117 -24 50 -48 91 -53 91 -4 0 -25 -11 -45
-25 -43 -29 -107 -33 -151 -10 -16 8 -71 43 -123 78 -77 52 -116 71 -213 101
-126 40 -199 72 -251 112 l-32 23 -59 -62 c-55 -58 -103 -119 -103 -130 0 -8
99 -39 310 -98 201 -56 261 -83 286 -130 13 -26 13 -36 3 -60 -14 -36 -36 -49
-84 -49 -49 0 -82 15 -252 118 -81 49 -182 106 -222 127 l-75 37 -18 -22 c-10
-12 -18 -28 -18 -35 0 -32 383 -292 539 -366 58 -28 120 -58 136 -66 48 -25
94 -74 111 -119 15 -39 15 -44 -4 -86 -33 -74 -110 -124 -283 -182 -55 -19
-103 -37 -106 -40 -11 -10 153 -7 209 5 29 6 103 35 164 65 62 30 122 54 135
54 33 0 87 -35 101 -65 10 -22 6 -34 -39 -107 -28 -46 -62 -106 -76 -134 -44
-86 -62 -89 -135 -21 -28 27 -34 29 -47 16 -8 -8 -37 -91 -64 -184 -27 -94
-57 -190 -65 -214 -21 -58 -21 -101 0 -101 10 0 92 76 183 169 91 92 189 183
216 201 66 44 131 97 241 197 146 133 130 102 -40 -77 -39 -41 -115 -108 -168
-148 -54 -41 -154 -133 -224 -205 -140 -146 -166 -167 -207 -167 -31 0 -145
61 -227 123 -141 105 -291 287 -373 452 -35 71 -72 173 -65 180 2 2 23 -1 47
-6 63 -14 87 -6 166 58 74 59 155 103 192 103 40 0 36 21 -13 71 -59 60 -152
109 -206 109 -47 0 -168 -31 -168 -43 0 -4 30 -21 68 -38 108 -49 148 -102
106 -144 -24 -23 -86 -53 -136 -64 -44 -10 -48 -10 -403 45 -122 18 -159 29
-135 38 28 10 395 128 415 133 11 3 25 6 32 8 8 3 5 25 -9 77 -25 93 -19 221
17 357 14 52 25 105 25 117 0 22 -65 69 -335 239 -52 33 -95 64 -95 68 0 8
250 0 277 -8 23 -7 22 11 -7 136 -127 553 -201 1148 -217 1764 -27 1033 13
1816 124 2438 23 132 26 98 4 -44z m5195 -207 c-36 -36 -46 -19 -10 19 16 17
30 25 33 18 2 -6 -8 -23 -23 -37z m-976 3 c7 -8 8 -15 2 -15 -5 0 -15 7 -22
15 -7 8 -8 15 -2 15 5 0 15 -7 22 -15z m-283 -281 c8 -21 -13 -42 -28 -27 -13
13 -5 43 11 43 6 0 13 -7 17 -16z m1028 -265 c174 -22 404 -96 419 -136 10
-26 0 -26 -56 0 -75 35 -198 74 -303 94 -72 14 -139 18 -330 17 -221 0 -250
-2 -368 -27 -104 -22 -212 -58 -314 -104 -8 -3 -13 2 -13 11 0 51 259 130 505
155 101 11 339 5 460 -10z m-728 -171 c58 -14 116 -70 150 -145 48 -104 18
-224 -67 -268 -38 -20 -94 -19 -137 2 -67 31 -93 143 -46 196 26 29 77 48 112
41 38 -8 84 -55 75 -77 -5 -15 -11 -13 -40 13 -63 55 -134 32 -134 -43 0 -87
97 -146 166 -101 56 37 70 130 34 227 -34 90 -102 137 -202 137 -31 0 -48 4
-42 9 22 21 71 25 131 9z m1060 -7 c14 -8 5 -10 -41 -11 -76 0 -126 -16 -171
-53 -20 -16 -34 -31 -33 -33 2 -2 26 8 53 21 89 46 166 29 335 -71 224 -132
327 -171 426 -161 68 7 108 28 172 90 40 40 52 47 52 32 0 -10 -26 -44 -57
-75 -65 -63 -113 -82 -202 -81 -113 0 -197 31 -363 133 -141 85 -193 109 -254
115 -45 5 -62 1 -109 -22 -67 -32 -85 -57 -92 -127 -9 -88 34 -148 107 -148
42 0 75 20 95 60 51 98 -34 171 -121 105 -35 -27 -52 -19 -34 15 15 28 62 50
106 50 28 0 44 -8 70 -34 30 -30 34 -40 34 -84 0 -82 -64 -142 -152 -142 -57
0 -102 29 -129 82 -58 113 19 294 146 343 43 16 131 14 162 -4z m-1043 -65
c37 -15 76 -53 76 -73 0 -9 -14 -4 -42 14 -35 24 -52 28 -107 27 -74 -1 -93
-8 -262 -110 -188 -113 -322 -154 -440 -135 -71 12 -116 37 -164 94 -50 58
-45 81 8 30 125 -123 285 -119 512 13 264 154 332 177 419 140z m-1078 -65
c41 -19 90 -72 94 -101 8 -55 -27 -53 -74 4 -30 38 -45 47 -92 57 -77 17 -85
34 -22 49 48 11 49 11 94 -9z m3162 -5 c10 -10 -18 -24 -63 -32 -29 -4 -51
-18 -81 -49 -43 -45 -82 -71 -91 -61 -23 23 69 139 119 149 29 7 107 1 116 -7z
m-1718 -351 l0 -35 -737 -2 -738 -3 -3 -62 -3 -63 -34 0 -35 0 0 100 0 100
775 0 775 0 0 -35z m1698 -67 l3 -98 -40 0 -40 0 -3 63 -3 62 -737 3 -738 2 0
35 0 35 778 -2 777 -3 3 -97z m-3178 -603 l0 -385 -35 0 -35 0 0 385 0 385 35
0 35 0 0 -385z m3180 0 l0 -385 -40 0 -40 0 0 385 0 385 40 0 40 0 0 -385z
m-1514 167 c40 -20 102 -81 123 -120 40 -75 32 -190 -18 -259 -29 -40 -123
-99 -141 -88 -21 13 -9 55 29 99 68 78 76 150 26 227 -57 88 -198 93 -268 10
-61 -73 -56 -153 14 -221 33 -32 39 -44 39 -79 0 -22 -2 -41 -4 -41 -2 0 -19
7 -39 15 -196 82 -193 355 5 455 56 28 70 31 128 27 38 -2 82 -13 106 -25z
m4654 -333 c0 -100 -7 -308 -15 -463 -34 -618 -72 -902 -139 -1033 -33 -66
-107 -137 -175 -169 -36 -17 -79 -50 -122 -95 -71 -74 -98 -89 -160 -89 -21 0
-39 -4 -39 -8 0 -4 21 -28 46 -52 65 -63 164 -186 164 -203 0 -17 38 -53 46
-44 4 3 2 20 -4 36 -6 17 -7 33 -3 35 30 19 494 67 508 52 5 -5 -82 -65 -257
-179 -74 -48 -146 -96 -160 -106 l-24 -19 26 -94 c38 -133 50 -237 38 -331 -5
-43 -14 -86 -20 -97 -6 -11 -9 -24 -6 -29 3 -5 52 -23 108 -40 57 -18 149 -48
206 -67 56 -19 109 -34 117 -34 21 0 19 -18 -2 -24 -10 -3 -121 -21 -247 -41
-218 -34 -230 -35 -280 -21 -67 20 -118 54 -130 89 -14 37 19 71 112 113 40
19 71 38 68 43 -3 5 -35 17 -71 26 -73 20 -144 16 -197 -11 -40 -21 -148 -122
-148 -139 0 -7 17 -15 39 -18 55 -7 105 -33 179 -94 60 -49 82 -60 172 -81 46
-11 44 -27 -21 -158 -115 -236 -280 -408 -521 -547 -86 -50 -107 -39 -273 137
-75 80 -160 157 -226 206 -114 85 -207 171 -279 260 -57 69 -30 51 115 -78 61
-54 137 -116 170 -137 33 -20 139 -116 236 -211 97 -96 182 -174 189 -174 18
0 9 46 -54 260 -68 229 -72 240 -92 240 -9 0 -34 -16 -55 -35 -43 -39 -60 -43
-80 -19 -14 17 -76 125 -125 220 -31 60 -28 95 13 121 44 29 92 22 194 -30
119 -60 194 -79 301 -75 l83 3 -110 38 c-147 52 -206 82 -251 128 -34 34 -38
45 -42 100 l-5 60 54 53 c35 33 75 60 114 75 89 36 245 124 375 213 125 85
241 177 247 194 2 6 -5 21 -15 34 l-19 23 -124 -65 c-68 -36 -169 -93 -223
-128 -55 -34 -114 -69 -132 -76 -82 -34 -164 -4 -164 61 0 27 8 40 42 70 24
20 65 42 93 50 263 74 415 119 443 131 41 17 39 21 -62 129 l-74 80 -23 -21
c-45 -40 -116 -74 -238 -114 -143 -47 -158 -54 -271 -130 -129 -87 -174 -94
-249 -41 -16 12 -33 21 -38 21 -4 0 -21 -31 -38 -68 -16 -37 -38 -82 -50 -100
-20 -32 -54 -50 -74 -37 -32 19 12 159 72 231 15 18 27 36 27 42 0 6 -22 26
-48 45 -64 47 -137 127 -192 210 -25 37 -49 66 -55 64 -6 -2 -12 -65 -16 -148
-3 -79 -11 -164 -18 -189 -27 -102 -63 -199 -77 -210 -15 -13 -20 -10 -194
130 -89 71 -118 81 -220 73 -83 -6 -178 10 -187 32 -14 38 104 215 201 302 28
24 87 67 133 95 45 28 90 59 98 68 20 22 23 100 12 285 l-7 130 37 -45 c21
-24 77 -89 125 -143 48 -55 93 -115 100 -133 15 -42 30 -43 64 -4 37 40 107
54 284 54 245 1 389 -42 337 -102 -28 -32 -197 -283 -197 -293 0 -6 9 -5 21 2
12 6 62 24 112 39 76 24 97 36 138 76 41 40 51 46 76 40 76 -19 81 -19 97 6 9
13 41 132 71 264 30 131 63 269 72 306 31 123 0 107 -120 -63 -48 -68 -118
-164 -154 -214 -37 -49 -67 -91 -68 -93 -1 -1 -22 9 -47 23 -76 43 -334 66
-522 46 -97 -10 -112 -9 -135 6 -47 30 -192 177 -258 261 -36 45 -65 82 -66
82 -1 0 -2 -100 -2 -222 0 -123 -3 -235 -8 -250 -5 -19 -29 -41 -75 -71 -106
-68 -236 -204 -332 -347 l-85 -125 -148 -3 c-82 -1 -147 1 -145 5 2 5 18 40
36 78 59 126 101 274 102 360 0 37 10 51 137 195 359 404 829 832 1201 1093
57 40 124 87 149 106 78 58 401 249 543 321 203 103 516 229 680 276 86 24 80
37 80 -167z m-4722 -116 l3 -83 61 0 61 0 -6 -72 c-3 -40 -18 -300 -33 -578
-21 -393 -24 -514 -16 -545 20 -72 73 -147 126 -180 46 -28 56 -30 145 -30 73
0 104 4 128 18 44 24 103 76 103 92 0 6 -18 20 -40 30 -22 10 -40 21 -40 24 0
3 25 27 54 53 30 26 82 85 116 130 35 46 66 84 71 86 26 10 16 -308 -12 -387
l-12 -34 -28 34 -27 34 -55 -58 c-81 -83 -166 -121 -272 -122 -92 0 -135 13
-205 61 -30 20 -50 29 -50 21 0 -7 16 -45 35 -85 47 -99 108 -161 197 -202 64
-30 81 -33 157 -33 101 0 166 22 249 84 48 37 112 111 112 130 0 5 -22 11 -50
15 -27 4 -50 10 -50 15 0 5 42 42 93 83 99 78 137 118 164 169 14 27 16 29 25
13 29 -51 17 -348 -17 -445 l-12 -36 -22 47 c-35 73 -40 74 -91 10 -62 -78
-165 -147 -267 -179 -71 -22 -97 -25 -182 -21 -90 3 -105 7 -175 42 -109 53
-177 124 -232 241 -24 51 -44 97 -44 104 0 22 -18 10 -25 -16 -14 -58 -74
-170 -114 -215 -77 -87 -185 -142 -311 -157 -166 -21 -361 61 -465 197 -21 29
-44 52 -50 52 -12 0 -27 -25 -45 -74 -16 -43 -29 -22 -47 75 -17 87 -22 310
-9 363 l7 28 28 -43 c15 -24 53 -66 85 -94 32 -27 81 -71 109 -96 l50 -46 -39
-12 c-21 -7 -45 -14 -52 -17 -20 -6 39 -87 94 -128 137 -104 284 -120 438 -48
34 16 78 46 100 67 39 39 106 164 106 199 0 17 -2 18 -17 4 -60 -53 -182 -81
-281 -66 -86 14 -138 42 -203 109 l-60 62 -33 -32 c-19 -18 -36 -29 -39 -24
-25 40 -42 382 -21 403 7 7 30 -15 78 -79 65 -87 100 -123 160 -167 l29 -21
-52 -18 c-28 -11 -51 -25 -51 -32 0 -7 23 -30 50 -52 57 -45 136 -67 211 -58
109 13 215 101 244 202 19 62 21 1 -30 799 -14 214 -22 393 -18 397 5 4 31 9
58 11 l50 3 3 83 3 83 47 -3 47 -3 3 -82z m-1598 -748 l0 -525 -35 0 -35 0 0
525 0 525 35 0 35 0 0 -525z m3180 92 c0 -239 -3 -475 -6 -525 l-7 -92 -33 0
-34 0 0 525 0 525 40 0 40 0 0 -433z m-3646 301 c27 -11 42 -40 31 -58 -4 -6
-23 -7 -45 -4 -33 5 -40 3 -50 -16 -7 -12 -9 -35 -6 -51 7 -36 -7 -38 -22 -4
-30 65 -1 134 60 144 4 0 18 -4 32 -11z m470 -1080 c2 -24 10 -89 16 -146 34
-307 193 -629 424 -857 166 -164 353 -281 558 -349 128 -43 287 -76 396 -83
l82 -6 0 -38 c0 -22 -2 -39 -4 -39 -3 0 -58 7 -123 15 -392 52 -713 205 -974
464 -256 256 -417 615 -445 994 l-7 87 36 0 c35 0 36 -1 41 -42z m3166 0 c0
-88 -39 -307 -75 -416 -40 -123 -136 -320 -222 -452 -148 -228 -441 -440 -757
-549 -121 -42 -365 -91 -452 -91 -43 0 -44 1 -44 34 l0 33 68 6 c264 25 558
126 767 265 294 195 513 519 600 887 20 84 45 255 45 310 0 11 10 15 35 15 35
0 35 -1 35 -42z m-3352 6 c12 -8 29 -28 37 -44 50 -97 -48 -208 -122 -138 -25
24 -29 48 -11 66 21 21 46 13 57 -18 12 -36 24 -38 45 -8 23 33 20 56 -13 89
-36 36 -70 37 -110 4 -90 -76 -73 -311 41 -565 40 -89 112 -194 189 -275 72
-75 98 -92 62 -38 -54 79 -58 149 -13 195 25 24 36 29 58 24 39 -10 76 -39 86
-70 19 -51 -24 -114 -61 -90 -26 16 -23 40 4 36 49 -7 36 72 -14 84 -21 6 -31
1 -50 -20 -32 -37 -29 -67 14 -150 78 -147 267 -289 613 -458 408 -200 447
-223 539 -317 45 -45 56 -52 70 -43 51 37 100 55 148 56 66 1 81 -13 92 -84
10 -63 36 -90 88 -90 45 0 69 14 88 50 22 43 18 52 -10 25 -28 -29 -61 -32
-87 -8 -25 22 -23 45 6 72 31 29 77 25 91 -6 12 -28 21 -29 28 -3 12 47 110
50 178 5 l40 -26 78 74 c87 83 169 134 341 214 369 171 601 318 713 451 98
116 121 203 66 245 -32 23 -62 16 -85 -19 -13 -20 -14 -27 -4 -39 7 -9 21 -13
31 -10 28 9 41 -3 29 -26 -23 -42 -90 -10 -90 43 0 58 64 115 115 102 35 -9
65 -50 65 -89 0 -40 -25 -113 -47 -137 -33 -37 -1 -30 38 8 101 97 214 279
265 425 78 222 72 419 -15 463 -37 20 -54 20 -90 1 -36 -18 -47 -59 -26 -91
15 -23 45 -33 45 -16 0 5 6 17 14 27 12 16 16 17 30 6 21 -18 20 -60 -1 -77
-54 -41 -133 17 -133 96 0 67 47 110 118 110 91 0 137 -87 136 -255 -2 -323
-177 -614 -525 -875 -186 -139 -339 -228 -640 -369 -209 -98 -320 -178 -386
-278 l-36 -53 -36 39 c-37 40 -84 58 -121 46 -13 -4 -30 -28 -44 -59 -30 -69
-75 -106 -127 -106 -72 0 -122 39 -143 112 -10 31 -20 46 -39 52 -37 14 -100
-8 -147 -50 l-39 -35 -16 31 c-35 68 -128 151 -246 221 -28 16 -144 74 -258
127 -338 160 -541 293 -739 485 -157 153 -256 323 -308 525 -22 89 -26 119
-22 215 4 128 22 177 72 208 38 23 94 24 124 3z m6316 -241 c-7 -32 -21 -89
-30 -128 -9 -38 -20 -77 -25 -86 -5 -10 -39 -23 -95 -34 l-86 -19 -19 25 c-10
13 -19 26 -18 29 0 3 21 21 46 40 26 19 90 79 143 132 52 54 96 98 97 98 0 0
-5 -26 -13 -57z m-7587 -356 c-12 -86 -61 -135 -87 -87 -12 23 -10 29 37 88
44 54 57 54 50 -1z m6101 -77 c-2 -17 -10 -26 -26 -28 -18 -3 -26 5 -41 41
-18 41 -25 77 -22 102 1 6 22 -12 46 -40 32 -35 44 -57 43 -75z m-4952 -117
c22 -8 -47 -39 -220 -99 -142 -49 -199 -55 -216 -25 -19 37 -11 72 26 109 l35
35 179 -7 c99 -3 187 -9 196 -13z m4112 -3 c18 -11 40 -35 49 -54 15 -33 15
-36 -2 -62 -16 -25 -21 -26 -74 -21 -68 6 -381 120 -381 139 0 7 82 12 280 16
80 2 100 -1 128 -18z m-3926 -119 c157 -167 381 -331 640 -467 78 -41 143 -74
145 -74 16 0 293 -144 318 -165 l30 -25 -110 -107 c-127 -123 -360 -332 -462
-416 l-71 -58 -86 47 c-75 40 -89 44 -103 33 -34 -29 -113 -154 -140 -222 -26
-67 -28 -70 -31 -39 -2 19 4 57 13 85 15 48 35 80 109 171 39 49 31 79 -32
108 -50 24 -51 27 -37 100 13 65 2 84 -71 119 -47 23 -74 44 -95 75 -40 59
-119 97 -190 92 l-52 -3 -61 79 c-56 71 -61 82 -60 125 7 234 6 324 -5 380
l-12 64 33 33 c35 35 215 153 235 154 6 0 49 -40 95 -89z m3603 -13 c122 -83
114 -63 88 -215 -14 -85 -14 -112 -3 -220 l13 -122 -32 -48 c-17 -26 -46 -65
-64 -87 -32 -37 -35 -39 -99 -40 -53 -1 -73 -7 -107 -29 -23 -16 -52 -44 -63
-64 -16 -26 -38 -43 -82 -63 -34 -15 -69 -37 -80 -48 -19 -21 -19 -23 -1 -128
7 -39 6 -41 -25 -54 -18 -8 -47 -28 -64 -45 -61 -61 -436 -270 -896 -500 -315
-158 -510 -248 -518 -241 -3 4 89 102 205 219 246 247 412 435 664 752 105
133 357 476 439 598 14 21 14 21 -5 6 -11 -9 -35 -29 -53 -45 -28 -24 -119
-80 -244 -148 -14 -8 -55 -54 -90 -102 -108 -150 -375 -482 -517 -643 -153
-174 -419 -451 -493 -513 l-49 -41 -72 28 c-121 46 -707 351 -722 376 -3 4
119 132 271 283 l276 274 28 -31 c27 -30 28 -31 53 -14 34 22 44 22 81 -7 17
-12 47 -31 66 -41 19 -10 65 -42 101 -71 36 -30 70 -54 75 -54 5 0 34 21 64
46 30 25 89 68 130 96 73 50 76 51 115 40 39 -11 40 -11 70 26 104 130 228
215 487 331 198 90 287 137 374 198 34 24 66 43 71 43 6 0 18 10 29 21 10 12
74 67 142 121 68 55 158 135 200 178 l76 79 45 -27 c26 -14 78 -47 116 -74z
m476 69 c19 -26 40 -93 34 -110 -2 -7 -6 -24 -9 -39 -14 -65 -119 -138 -198
-138 -44 0 -48 -11 -12 -39 30 -23 70 -37 137 -46 27 -3 77 -21 112 -40 36
-18 87 -38 115 -44 76 -16 173 -64 223 -111 36 -32 48 -52 56 -91 33 -155
-113 -361 -301 -423 -26 -8 -22 -18 17 -45 35 -23 43 -24 117 -5 24 5 29 2 38
-21 17 -44 -5 -89 -78 -167 -75 -80 -81 -80 -169 -23 -60 40 -124 116 -161
192 -26 52 -26 52 -76 55 l-51 3 90 24 c50 13 143 36 207 51 129 30 164 47
174 86 14 55 -41 165 -92 184 -15 6 -34 6 -50 0 -24 -10 -222 -148 -367 -258
-129 -98 -127 -79 2 30 l44 38 -36 102 c-19 57 -50 144 -68 193 -28 77 -33
107 -37 210 -4 108 9 235 24 235 3 0 21 -12 41 -27 26 -20 46 -27 73 -26 73 3
161 68 176 129 7 28 0 109 -11 137 -10 24 15 13 36 -16z m-4777 6 c-17 -39
-15 -117 4 -153 22 -42 99 -97 149 -106 29 -5 42 -1 79 25 25 17 49 31 54 31
15 0 22 -86 18 -223 -5 -142 1 -121 -104 -406 l-38 -104 74 -70 c93 -86 82
-80 -103 52 -275 196 -281 200 -312 200 -17 1 -41 -6 -53 -15 -31 -21 -63 -88
-65 -135 -2 -63 30 -87 154 -115 57 -14 154 -37 214 -53 110 -29 110 -29 55
-30 l-55 -1 -35 -67 c-39 -77 -126 -171 -187 -202 -23 -11 -47 -21 -53 -21
-15 0 -98 78 -132 124 -20 29 -28 51 -28 82 0 57 22 71 68 42 38 -23 65 -19
106 17 35 30 30 36 -43 60 -76 25 -188 132 -227 217 -32 73 -43 171 -24 218
28 67 147 142 270 170 30 7 78 26 107 42 29 16 86 35 128 43 81 16 136 37 156
61 13 16 7 19 -62 29 -61 8 -129 53 -158 106 -29 51 -25 121 8 168 24 33 49
43 35 14z m644 -897 c31 -30 21 -46 -27 -46 -41 0 -91 31 -91 55 0 40 75 34
118 -9z m3576 18 c10 -27 -38 -64 -83 -64 -43 0 -55 9 -45 34 15 39 115 63
128 30z m-3416 -220 c4 -28 -40 -187 -80 -289 -66 -170 -128 -268 -158 -250
-20 12 -9 59 39 163 27 59 57 141 66 182 20 83 57 174 82 203 21 23 47 18 51
-9z m3194 9 c30 -35 66 -119 87 -208 12 -49 40 -128 61 -175 58 -127 62 -140
49 -156 -21 -25 -37 -15 -76 49 -87 138 -190 437 -170 490 8 22 30 22 49 0z
m-3756 -287 c-15 -65 -22 -79 -53 -104 -41 -32 -40 -56 2 -72 14 -5 76 -34
137 -64 127 -61 214 -96 241 -96 10 0 24 15 34 35 20 41 22 42 57 14 21 -17
36 -20 64 -15 41 6 85 -2 77 -14 -3 -5 -42 -34 -87 -66 l-81 -57 -50 12 c-50
11 -51 11 -136 -38 -417 -239 -849 -366 -1281 -377 -90 -3 -166 -6 -167 -8 -4
-4 11 -32 105 -191 114 -193 131 -215 160 -215 15 0 94 14 176 30 488 97 997
346 1535 752 35 26 70 48 78 48 21 0 233 -82 358 -138 61 -27 156 -70 213 -96
126 -57 270 -129 297 -149 20 -15 20 -16 -6 -25 -14 -6 -128 -58 -252 -116
-125 -58 -229 -106 -232 -106 -2 0 -119 -56 -260 -125 -266 -129 -444 -226
-507 -276 l-36 -29 -21 35 c-22 38 -44 44 -80 19 -25 -18 -25 -50 -1 -110 12
-28 11 -34 -8 -58 l-21 -27 -36 54 c-38 57 -67 77 -113 77 -58 0 -68 -41 -21
-86 17 -16 42 -49 56 -72 22 -36 24 -46 12 -53 -22 -14 -26 -12 -66 36 -20 25
-43 45 -51 45 -18 0 -169 -65 -440 -191 -46 -22 -86 -39 -88 -39 -2 0 -167
-80 -367 -178 -497 -245 -966 -500 -1030 -560 l-28 -27 -19 25 c-11 14 -20 27
-20 30 0 6 226 137 421 243 195 107 497 261 699 357 96 45 203 96 238 112 34
17 62 34 62 39 0 6 -7 20 -15 33 -15 23 -15 23 57 41 112 27 226 64 234 77 5
8 -3 9 -27 4 -66 -13 -225 -35 -332 -46 -81 -8 -112 -8 -123 1 -13 11 -200
269 -264 364 -55 83 -192 311 -275 460 -42 77 -117 210 -165 295 -93 165 -170
308 -170 316 0 2 8 1 18 -4 39 -21 159 -32 338 -32 104 0 195 4 202 8 10 7 6
25 -19 82 -28 67 -30 77 -19 113 6 21 13 37 15 35 1 -1 10 -32 19 -67 9 -35
34 -98 55 -140 54 -107 174 -304 187 -308 10 -3 37 50 29 59 -1 1 -8 102 -14
223 -6 121 -14 244 -16 273 -3 28 -1 52 4 52 19 0 44 -90 52 -190 4 -58 8
-107 8 -109 1 -3 11 5 24 16 52 47 117 83 149 83 40 0 210 59 202 71 -3 5 -33
6 -67 3 -42 -5 -59 -3 -52 4 23 23 86 33 162 27 62 -5 94 -2 156 14 108 28
128 39 162 93 16 25 32 45 34 43 2 -2 -4 -38 -13 -79z m4300 13 c28 -41 36
-45 110 -63 50 -12 121 -20 192 -21 71 -1 117 -6 124 -13 9 -9 5 -12 -18 -13
-16 -1 -40 -4 -53 -8 -20 -5 -11 -11 56 -34 45 -15 88 -25 96 -21 24 9 97 -29
154 -80 61 -56 58 -61 72 100 5 58 16 115 26 134 9 17 18 30 20 28 2 -1 -1
-91 -6 -198 -5 -107 -10 -242 -12 -300 -2 -97 -1 -105 17 -105 31 0 221 347
242 442 17 75 28 85 39 33 5 -22 -2 -50 -24 -105 -17 -40 -31 -79 -31 -85 0
-9 62 -11 233 -8 197 3 237 6 266 21 19 9 36 17 38 17 2 0 -11 -20 -29 -44
-38 -50 -34 -49 -226 -67 -74 -7 -125 -16 -115 -20 16 -6 155 -25 226 -32 l28
-2 -39 -80 c-42 -84 -60 -105 -207 -226 -362 -300 -707 -528 -1070 -706 -122
-60 -173 -89 -165 -97 5 -5 10 -15 10 -22 0 -18 -67 0 -94 25 -12 12 -34 21
-48 21 -40 0 -85 19 -371 159 -148 72 -270 131 -272 131 -2 0 -122 58 -267
128 -145 71 -329 159 -410 197 -82 37 -148 72 -148 76 0 3 15 14 33 22 17 8
167 79 332 157 383 182 580 267 730 318 66 22 127 43 135 46 11 5 19 -3 27
-24 14 -37 38 -39 124 -10 87 30 319 148 326 166 3 10 -8 30 -31 53 -33 34
-77 134 -76 174 1 13 6 6 56 -64z m-697 25 c46 -38 101 -156 101 -216 0 -27
-4 -47 -9 -44 -5 4 -21 36 -35 74 -14 37 -44 96 -66 132 -22 36 -40 68 -40 73
0 14 19 7 49 -19z m-3303 -81 c-9 -40 -65 -125 -79 -120 -21 8 -9 55 29 112
38 59 62 62 50 8z m3722 -16 c36 -50 47 -102 22 -102 -20 0 -70 78 -77 121 -8
49 11 42 55 -19z m-5953 -46 c22 -10 60 -39 84 -65 l45 -46 -25 -26 c-13 -14
-91 -80 -174 -147 -187 -150 -175 -141 -181 -135 -10 10 138 403 158 421 25
22 43 21 93 -2z m8218 -9 c12 -13 147 -389 147 -408 0 -19 -83 43 -270 201
-120 102 -117 96 -79 139 75 86 161 115 202 68z m-7175 -101 c4 -48 -8 -48
-33 0 -17 33 -12 52 13 47 12 -2 18 -16 20 -47z m6072 34 c0 -20 -22 -65 -32
-65 -9 0 -11 41 -2 64 8 20 34 21 34 1z m-2225 -215 c0 -10 -120 -75 -336
-185 -185 -93 -408 -210 -495 -259 -220 -123 -246 -135 -354 -162 -189 -47
-220 -24 -82 62 45 29 119 68 165 87 137 58 417 182 533 235 60 27 156 71 214
98 58 26 152 69 210 96 105 48 145 56 145 28z m6162 -481 l182 -60 -33 -77
c-546 -1267 -1392 -2345 -2486 -3166 -1648 -1237 -3700 -1759 -5755 -1465
-2530 361 -4738 1981 -5856 4294 -87 180 -169 366 -169 383 0 8 349 103 376
102 6 0 17 -15 25 -32 38 -97 179 -390 255 -531 292 -545 655 -1059 1059
-1500 113 -124 421 -430 530 -527 1143 -1021 2568 -1658 4080 -1825 505 -55
1035 -58 1540 -9 1631 158 3174 870 4355 2008 576 556 1030 1154 1404 1853 82
154 215 431 266 556 13 31 28 57 34 57 6 0 93 -27 193 -61z m-6361 -475 c335
-168 613 -310 618 -314 4 -5 -5 -32 -20 -61 l-29 -54 -85 -17 c-47 -10 -139
-27 -205 -38 -77 -12 -124 -25 -131 -34 -6 -9 -181 -311 -390 -671 -208 -360
-381 -655 -384 -655 -3 0 -182 305 -397 678 l-392 677 -153 30 c-84 17 -161
34 -170 38 -18 6 -86 132 -77 141 5 5 659 326 664 326 3 0 508 242 541 259 1
1 275 -137 610 -305z m2423 -65 c-89 -148 -167 -264 -256 -381 l-43 -56 133
-70 c72 -38 204 -106 292 -150 270 -135 862 -456 888 -481 9 -9 -12 -51 -26
-51 -5 0 -23 11 -40 24 -101 76 -1055 581 -1317 696 -154 68 -470 222 -470
229 0 3 23 21 50 39 l49 34 85 -45 86 -45 104 58 c151 84 283 168 426 269 69
49 126 87 128 86 2 -2 -38 -72 -89 -156z m-5452 -516 c5 -12 -7 -28 -38 -56
-56 -51 -105 -73 -125 -56 -19 16 -18 32 8 64 46 58 140 88 155 48z m4910 -9
c22 -15 48 -40 58 -56 16 -27 16 -32 2 -45 -23 -24 -63 -8 -120 46 -35 33 -48
53 -44 65 10 24 57 20 104 -10z m-4363 1 c24 -18 58 -19 75 -2 10 10 29 -6 97
-78 136 -146 134 -142 141 -293 l6 -130 90 -58 c370 -238 1009 -887 1166
-1184 19 -36 45 -83 59 -104 19 -31 21 -38 7 -33 -45 18 -333 196 -524 324
-523 352 -943 696 -1398 1146 -112 110 -203 203 -203 206 0 8 26 21 270 138
96 45 179 83 185 83 5 0 19 -7 29 -15z m4020 -95 c102 -49 186 -94 186 -99 0
-15 -459 -460 -620 -602 -379 -334 -828 -671 -1212 -912 -133 -83 -327 -197
-336 -197 -10 0 1070 1087 1153 1161 39 34 113 95 167 135 112 85 104 65 122
317 l11 157 115 56 c63 31 138 60 165 64 28 4 53 8 57 9 4 0 90 -39 192 -89z
m-4869 -51 c19 -36 13 -79 -16 -105 -18 -16 -20 -16 -39 1 -25 22 -36 79 -21
111 16 36 56 32 76 -7z m5471 6 c14 -22 15 -32 5 -64 -16 -54 -36 -69 -61 -46
-28 26 -36 79 -16 110 21 32 51 32 72 0z m-5041 -256 c178 -179 482 -456 670
-611 235 -193 295 -240 570 -444 150 -111 131 -109 -32 4 -331 230 -662 492
-978 776 -151 135 -415 399 -409 408 15 23 52 -4 179 -133z m-1852 -231 c14
-18 33 -49 42 -68 10 -19 49 -79 86 -133 72 -101 84 -137 49 -137 -27 0 -42
16 -141 155 -127 176 -142 215 -85 215 17 0 33 -11 49 -32z m8315 7 c2 -12
-25 -58 -65 -115 -37 -52 -76 -108 -86 -123 -34 -52 -89 -107 -108 -107 -33 0
-22 32 39 115 32 44 78 112 102 150 24 39 50 78 59 88 19 23 55 18 59 -8z
m-7778 -20 c0 -7 -218 -111 -272 -130 -41 -15 -59 -5 -37 21 35 42 309 138
309 109z m7323 -35 c126 -40 223 -112 131 -97 -41 7 -274 116 -274 129 0 10
29 4 143 -32z m-7918 -147 c28 -56 60 -112 73 -125 27 -30 28 -38 3 -38 -23 0
-66 47 -114 126 -39 65 -52 105 -43 130 12 30 31 7 81 -93z m8428 86 c7 -27
-9 -73 -51 -139 -44 -70 -81 -110 -103 -110 -28 0 -29 14 -4 38 13 12 44 64
70 115 65 125 77 139 88 96z m-9226 -1844 c40 -39 45 -47 32 -59 -7 -7 -74
-37 -148 -67 -93 -38 -136 -60 -141 -74 -4 -11 -20 -78 -35 -150 -15 -71 -34
-136 -41 -144 -10 -12 -18 -10 -49 9 -69 43 -70 48 -44 232 15 98 30 169 39
180 14 17 285 116 322 117 10 1 39 -19 65 -44z m209 -197 c24 -22 43 -46 41
-52 -2 -6 -66 -36 -143 -66 l-139 -56 -30 -145 c-16 -79 -34 -150 -38 -157
-10 -15 -54 8 -94 50 l-25 26 21 158 c12 86 26 165 32 175 5 10 26 23 47 29
20 5 84 26 142 45 58 19 113 34 123 35 9 0 38 -19 63 -42z m517 -182 c91 -58
88 -47 71 -240 -8 -92 -14 -172 -12 -177 2 -4 68 30 148 76 80 47 155 85 168
85 28 0 130 -64 139 -87 9 -23 -11 -37 -226 -154 -119 -64 -191 -109 -191
-119 -1 -64 -39 -480 -44 -489 -13 -20 -41 -11 -109 34 -78 53 -74 32 -51 259
8 86 14 163 12 171 -2 10 -53 -15 -167 -81 -90 -52 -169 -94 -174 -94 -16 0
-112 58 -131 79 -10 11 -16 26 -13 33 2 8 104 67 226 133 175 95 221 124 221
140 0 37 30 399 35 433 8 42 31 42 98 -2z m9080 -161 c81 -38 152 -75 156 -84
12 -22 24 -333 14 -347 -22 -31 -120 -80 -123 -61 -1 1 -9 71 -19 156 -11 84
-23 157 -28 161 -4 4 -66 38 -137 76 -70 38 -131 74 -133 82 -10 25 83 98 112
88 6 -2 77 -34 158 -71z m-1157 -100 c44 -105 -18 -210 -166 -279 -125 -58
-232 -44 -289 39 -32 48 -25 66 42 99 l58 29 29 -31 c22 -25 37 -32 65 -32 76
0 118 44 113 120 -3 42 -1 45 37 67 60 34 93 31 111 -12z m907 -66 c78 -33
148 -66 156 -74 11 -11 16 -54 19 -178 l5 -164 -46 -32 c-48 -33 -75 -39 -82
-18 -2 6 -11 75 -19 152 -8 77 -19 141 -23 143 -4 1 -66 33 -138 70 -79 41
-130 73 -130 82 0 15 87 80 107 80 5 0 73 -27 151 -61z m-507 -490 c114 -229
194 -400 192 -413 -3 -22 -77 -68 -131 -81 -27 -7 -28 -6 -156 256 -71 145
-132 257 -134 249 -3 -8 -24 -163 -47 -345 -23 -181 -46 -337 -50 -346 -11
-20 -118 -72 -136 -65 -8 3 -102 185 -210 403 -141 287 -193 402 -186 413 13
23 104 70 135 70 26 0 34 -13 155 -262 l127 -262 44 335 c25 183 47 345 51
359 4 16 23 34 56 52 90 50 71 75 290 -363z m-7155 159 c79 -41 84 -45 87 -78
3 -43 -84 -905 -93 -919 -11 -18 -37 -12 -110 27 -60 31 -70 41 -68 62 0 14 4
64 8 111 l7 85 -153 72 -154 71 -68 -74 c-78 -85 -88 -88 -170 -51 -65 28 -73
40 -54 70 8 12 155 167 327 344 230 238 318 322 335 322 12 0 60 -19 106 -42z
m5925 -263 c9 -14 19 -45 21 -69 l5 -44 -158 -52 c-88 -29 -160 -54 -161 -55
-4 -3 59 -190 67 -199 5 -4 65 11 134 34 70 23 133 39 141 36 22 -8 46 -64 43
-99 -3 -32 -5 -33 -133 -76 -71 -24 -132 -45 -134 -47 -3 -2 66 -219 75 -236
3 -3 77 18 165 48 89 29 165 51 170 49 14 -9 41 -92 37 -115 -3 -21 -28 -32
-235 -101 -128 -42 -241 -75 -252 -72 -11 3 -23 12 -26 21 -27 65 -265 791
-265 808 0 12 6 27 14 33 14 12 439 159 463 160 7 1 20 -10 29 -24z m-4816
-151 c124 -36 235 -72 248 -80 12 -8 22 -25 22 -37 0 -12 -45 -175 -100 -362
-55 -187 -100 -341 -100 -342 0 -1 18 -8 40 -14 66 -20 66 -23 20 -181 -24
-79 -47 -158 -52 -175 -10 -37 -32 -42 -98 -23 -76 21 -77 23 -41 144 18 60
31 110 29 111 -4 4 -540 163 -564 167 -14 2 -24 -18 -48 -102 -35 -118 -40
-123 -123 -99 -77 21 -77 18 -22 205 27 92 54 173 60 180 8 10 23 12 48 8 36
-6 40 -3 93 55 67 74 132 191 233 416 83 184 89 195 114 195 9 0 117 -30 241
-66z m3874 -116 c18 -29 29 -99 18 -116 -5 -6 -91 -29 -193 -49 -101 -20 -188
-39 -192 -43 -7 -7 24 -204 34 -214 2 -3 45 4 94 14 129 27 227 26 290 -4 61
-28 87 -56 116 -120 48 -110 23 -233 -62 -310 -62 -56 -125 -80 -308 -117
-162 -33 -194 -35 -210 -16 -11 13 -171 804 -171 845 0 11 7 25 15 32 11 9
433 101 547 119 4 0 14 -9 22 -21z m-3046 -90 c36 -11 33 -4 62 -167 29 -168
60 -216 146 -228 l40 -5 17 163 c10 90 21 172 24 183 5 16 13 18 80 14 110 -7
108 -2 84 -203 -11 -92 -18 -172 -15 -176 8 -14 71 -11 108 5 45 19 66 51 129
197 l53 124 65 0 c91 -1 119 -10 119 -39 0 -13 -31 -86 -69 -162 -50 -102 -79
-149 -110 -177 -22 -20 -48 -37 -56 -37 -24 0 -18 -17 14 -40 45 -31 77 -109
116 -278 19 -84 35 -160 35 -168 0 -8 -10 -18 -22 -23 -32 -11 -147 4 -165 22
-9 8 -28 79 -44 157 -31 154 -50 203 -85 227 -23 15 -103 37 -110 30 -2 -1
-13 -84 -25 -182 -11 -99 -25 -186 -31 -192 -17 -21 -145 -10 -169 14 -4 4 2
92 15 195 l22 186 -33 5 c-47 8 -97 -9 -131 -44 -17 -18 -56 -89 -88 -161 -36
-79 -67 -136 -81 -145 -18 -12 -34 -13 -89 -4 -110 17 -110 16 -22 195 80 161
130 229 185 253 l33 13 -38 38 c-44 44 -68 112 -104 291 -22 110 -22 113 -4
127 20 14 83 11 144 -8z m2032 -77 c3 -6 14 -170 24 -364 9 -193 20 -393 23
-444 l6 -91 -39 -11 c-52 -15 -116 -14 -137 2 -14 10 -19 54 -31 290 -8 153
-16 280 -18 282 -2 3 -85 -131 -183 -296 -177 -294 -181 -300 -220 -310 -37
-10 -110 -7 -122 5 -3 2 -15 204 -28 448 -20 376 -21 445 -9 457 15 16 156 23
170 8 7 -6 32 -419 34 -542 l0 -50 178 296 c97 163 183 303 190 312 22 26 146
32 162 8z"/>
<path d="M10948 18805 l-66 -144 31 -6 c117 -18 157 -21 157 -11 0 18 -49 298
-52 302 -2 2 -33 -62 -70 -141z"/>
<path d="M13973 18018 c-14 -19 -83 -145 -83 -153 0 -3 29 -20 65 -37 82 -38
126 -34 155 15 11 18 20 40 20 50 0 37 -32 78 -83 107 -59 34 -61 34 -74 18z"/>
<path d="M3790 16314 c0 -6 139 -244 152 -260 6 -8 27 8 68 50 33 35 60 67 60
72 0 6 -63 40 -140 76 -77 37 -140 64 -140 62z"/>
<path d="M16673 15283 l-151 -46 51 -78 c29 -43 54 -78 57 -78 3 0 43 48 90
106 86 108 114 144 108 142 -2 0 -71 -21 -155 -46z"/>
<path d="M9890 14085 l0 -75 183 2 182 3 3 73 3 72 -186 0 -185 0 0 -75z"/>
<path d="M10763 14036 l-30 -75 30 -12 c20 -8 34 -9 45 -3 19 13 48 68 57 110
5 28 3 32 -19 38 -13 3 -31 8 -39 11 -10 4 -22 -15 -44 -69z"/>
<path d="M10873 14007 c-17 -61 -19 -74 -7 -87 9 -9 17 -11 23 -5 16 17 70
145 63 148 -4 3 -18 7 -32 10 -24 6 -27 3 -47 -66z"/>
<path d="M10970 14043 c0 -10 -7 -36 -15 -58 -28 -79 -24 -87 63 -117 42 -15
80 -24 84 -20 4 4 15 37 25 74 21 82 16 90 -77 118 -81 24 -80 24 -80 3z"/>
<path d="M8927 14033 c-47 -13 -58 -20 -64 -41 -6 -27 22 -126 41 -141 7 -6
39 0 81 13 66 21 70 24 68 51 -3 41 -43 135 -57 134 -6 -1 -37 -8 -69 -16z"/>
<path d="M10124 13977 c-3 -8 -4 -45 -2 -83 l3 -69 39 -3 c22 -2 50 -1 63 3
23 5 24 9 21 83 l-3 77 -58 3 c-42 2 -59 -1 -63 -11z"/>
<path d="M10911 13798 c-11 -34 -20 -62 -18 -64 6 -5 151 -63 153 -61 5 5 45
149 42 151 -4 3 -143 36 -151 36 -3 0 -15 -28 -26 -62z"/>
<path d="M9781 13683 c-32 -4 -33 -5 -27 -41 3 -20 6 -46 6 -58 0 -20 3 -20
238 -19 l237 1 3 56 3 55 -38 7 c-41 6 -365 6 -422 -1z"/>
<path d="M9585 13665 c-55 -7 -138 -23 -184 -34 -46 -12 -86 -21 -89 -21 -8 0
6 -112 16 -122 6 -6 33 -3 70 6 50 13 297 55 325 56 9 0 8 65 -2 100 -8 31
-12 31 -136 15z"/>
<path d="M10265 13625 c-8 -66 -3 -75 38 -75 26 0 146 -20 344 -57 30 -5 32
-3 42 33 18 64 15 69 -41 87 -71 21 -189 44 -268 52 -36 3 -75 8 -86 10 -20 4
-22 -1 -29 -50z"/>
<path d="M9746 13529 c-87 -9 -186 -28 -186 -35 0 -12 34 -130 40 -137 3 -4
42 -1 86 8 43 8 131 18 194 22 l115 8 3 73 3 72 -88 -1 c-48 -1 -124 -5 -167
-10z"/>
<path d="M10030 13467 l0 -77 68 0 c37 0 112 -7 166 -15 148 -22 143 -24 155
35 20 95 20 96 -61 109 -40 6 -130 15 -200 18 l-128 6 0 -76z"/>
<path d="M7167 10212 c-34 -31 -79 -70 -99 -86 -41 -30 -48 -56 -22 -77 13
-11 17 -10 25 4 6 9 42 56 81 104 94 116 91 113 84 113 -4 0 -35 -26 -69 -58z"/>
<path d="M6681 2119 c-73 -77 -131 -142 -129 -144 8 -8 220 -106 223 -103 6 5
47 379 43 383 -2 3 -64 -59 -137 -136z"/>
<path d="M7850 1813 c-89 -207 -178 -361 -245 -426 l-38 -37 24 -8 c55 -21
320 -95 323 -91 6 5 176 583 173 584 -8 5 -186 55 -194 55 -5 0 -24 -35 -43
-77z"/>
<path d="M11661 1346 c-30 -6 -56 -16 -58 -21 -2 -6 7 -62 20 -125 l23 -115
30 1 c58 3 143 26 176 47 65 44 69 145 8 200 -26 23 -38 27 -88 26 -31 -1 -81
-6 -111 -13z"/>
</g>
</svg>
